<svg xmlns="http://www.w3.org/2000/svg" width="100" height="100" fill="none"><mask id="a" width="100" height="100" x="0" y="0" maskUnits="userSpaceOnUse" style="mask-type:luminance"><path fill="#fff" d="M100 0H0v100h100V0z"/></mask><g mask="url(#a)"><mask id="b" width="92" height="92" x="4" y="4" maskUnits="userSpaceOnUse" style="mask-type:luminance"><path fill="#fff" d="M23.367 6.733a1.144 1.144 0 1 0 0-2.289 1.144 1.144 0 0 0 0 2.29zm6.666 0a1.144 1.144 0 1 0 0-2.288 1.144 1.144 0 0 0 0 2.288z"/><path fill="#fff" d="M32.255 6.733a1.145 1.145 0 1 0 0-2.289 1.145 1.145 0 0 0 0 2.29z"/><path fill="#fff" d="M34.477 6.733a1.144 1.144 0 1 0 0-2.288 1.144 1.144 0 0 0 0 2.288z"/><path fill="#fff" d="M36.7 6.733a1.145 1.145 0 1 0 0-2.289 1.145 1.145 0 0 0 0 2.29zm4.445 0a1.145 1.145 0 1 0 0-2.289 1.145 1.145 0 0 0 0 2.29z"/><path fill="#fff" d="M43.367 6.733a1.144 1.144 0 1 0 0-2.288 1.144 1.144 0 0 0 0 2.288zm6.666 0a1.144 1.144 0 1 0 0-2.288 1.144 1.144 0 0 0 0 2.288z"/><path fill="#fff" d="M52.256 6.733a1.145 1.145 0 1 0 0-2.289 1.145 1.145 0 0 0 0 2.29z"/><path fill="#fff" d="M54.478 6.733a1.144 1.144 0 1 0 0-2.289 1.144 1.144 0 0 0 0 2.29z"/><path fill="#fff" d="M56.7 6.733a1.145 1.145 0 1 0 0-2.289 1.145 1.145 0 0 0 0 2.29zm4.444 0a1.145 1.145 0 1 0 0-2.289 1.145 1.145 0 0 0 0 2.29z"/><path fill="#fff" d="M63.367 6.733a1.144 1.144 0 1 0 0-2.288 1.144 1.144 0 0 0 0 2.288z"/><path fill="#fff" d="M65.59 6.733a1.145 1.145 0 1 0 0-2.289 1.145 1.145 0 0 0 0 2.29zm6.666 0a1.144 1.144 0 1 0 0-2.288 1.144 1.144 0 0 0 0 2.288z"/><path fill="#fff" d="M74.478 6.733a1.145 1.145 0 1 0 0-2.289 1.145 1.145 0 0 0 0 2.29zM23.367 8.955a1.144 1.144 0 1 0 0-2.289 1.144 1.144 0 0 0 0 2.29zm4.443 0a1.144 1.144 0 1 0 0-2.289 1.144 1.144 0 0 0 0 2.29z"/><path fill="#fff" d="M30.033 8.955a1.144 1.144 0 1 0 0-2.288 1.144 1.144 0 0 0 0 2.288z"/><path fill="#fff" d="M32.255 8.955a1.144 1.144 0 1 0 0-2.289 1.144 1.144 0 0 0 0 2.29z"/><path fill="#fff" d="M34.477 8.955a1.144 1.144 0 1 0 0-2.288 1.144 1.144 0 0 0 0 2.288zm6.668 0a1.144 1.144 0 1 0 0-2.289 1.144 1.144 0 0 0 0 2.29zm13.333 0a1.144 1.144 0 1 0 0-2.288 1.144 1.144 0 0 0 0 2.288zm6.666 0a1.144 1.144 0 1 0 0-2.289 1.144 1.144 0 0 0 0 2.29z"/><path fill="#fff" d="M63.367 8.955a1.144 1.144 0 1 0 0-2.288 1.144 1.144 0 0 0 0 2.288zm4.444 0a1.144 1.144 0 1 0 0-2.288 1.144 1.144 0 0 0 0 2.288z"/><path fill="#fff" d="M70.034 8.955a1.145 1.145 0 1 0 0-2.289 1.145 1.145 0 0 0 0 2.29z"/><path fill="#fff" d="M72.256 8.955a1.144 1.144 0 1 0 0-2.288 1.144 1.144 0 0 0 0 2.288z"/><path fill="#fff" d="M74.478 8.955a1.145 1.145 0 1 0 0-2.289 1.145 1.145 0 0 0 0 2.29z"/><path fill="#fff" d="M76.7 8.955a1.144 1.144 0 1 0 0-2.288 1.144 1.144 0 0 0 0 2.288zm-53.333 2.223a1.144 1.144 0 1 0 0-2.29 1.144 1.144 0 0 0 0 2.29z"/><path fill="#fff" d="M25.59 11.178a1.144 1.144 0 1 0 0-2.29 1.144 1.144 0 0 0 0 2.29z"/><path fill="#fff" d="M27.81 11.178a1.145 1.145 0 1 0 0-2.29 1.145 1.145 0 0 0 0 2.29z"/><path fill="#fff" d="M30.033 11.178a1.144 1.144 0 1 0 0-2.29 1.144 1.144 0 0 0 0 2.29z"/><path fill="#fff" d="M32.255 11.178a1.145 1.145 0 1 0 0-2.29 1.145 1.145 0 0 0 0 2.29z"/><path fill="#fff" d="M34.477 11.178a1.144 1.144 0 1 0 0-2.29 1.144 1.144 0 0 0 0 2.29z"/><path fill="#fff" d="M36.7 11.178a1.145 1.145 0 1 0 0-2.29 1.145 1.145 0 0 0 0 2.29zm6.667 0a1.144 1.144 0 1 0 0-2.29 1.144 1.144 0 0 0 0 2.29z"/><path fill="#fff" d="M45.589 11.178a1.145 1.145 0 1 0 0-2.29 1.145 1.145 0 0 0 0 2.29zm4.444 0a1.144 1.144 0 1 0 0-2.29 1.144 1.144 0 0 0 0 2.29z"/><path fill="#fff" d="M52.256 11.178a1.145 1.145 0 1 0 0-2.29 1.145 1.145 0 0 0 0 2.29zm4.444 0a1.145 1.145 0 1 0 0-2.29 1.145 1.145 0 0 0 0 2.29zm4.444 0a1.145 1.145 0 1 0 0-2.29 1.145 1.145 0 0 0 0 2.29zm15.556 0a1.144 1.144 0 1 0 0-2.29 1.144 1.144 0 0 0 0 2.29zM25.59 13.4a1.144 1.144 0 1 0 0-2.289 1.144 1.144 0 0 0 0 2.289zm4.443 0a1.144 1.144 0 1 0 0-2.289 1.144 1.144 0 0 0 0 2.289zm4.444 0a1.144 1.144 0 1 0 0-2.289 1.144 1.144 0 0 0 0 2.289z"/><path fill="#fff" d="M36.7 13.4a1.145 1.145 0 1 0 0-2.29 1.145 1.145 0 0 0 0 2.29z"/><path fill="#fff" d="M38.922 13.4a1.144 1.144 0 1 0 0-2.289 1.144 1.144 0 0 0 0 2.289zm6.667 0a1.144 1.144 0 1 0 0-2.29 1.144 1.144 0 0 0 0 2.29z"/><path fill="#fff" d="M47.811 13.4a1.144 1.144 0 1 0 0-2.29 1.144 1.144 0 0 0 0 2.29zm4.445 0a1.144 1.144 0 1 0 0-2.29 1.144 1.144 0 0 0 0 2.29zm4.444 0a1.144 1.144 0 1 0 0-2.29 1.144 1.144 0 0 0 0 2.29z"/><path fill="#fff" d="M58.922 13.4a1.144 1.144 0 1 0 0-2.289 1.144 1.144 0 0 0 0 2.289zm4.445 0a1.144 1.144 0 1 0 0-2.289 1.144 1.144 0 0 0 0 2.289z"/><path fill="#fff" d="M65.59 13.4a1.144 1.144 0 1 0 0-2.29 1.144 1.144 0 0 0 0 2.29zm6.666 0a1.144 1.144 0 1 0 0-2.289 1.144 1.144 0 0 0 0 2.289zM25.59 15.622a1.144 1.144 0 1 0 0-2.288 1.144 1.144 0 0 0 0 2.288zm8.887 0a1.144 1.144 0 1 0 0-2.288 1.144 1.144 0 0 0 0 2.288zm6.668 0a1.145 1.145 0 1 0 0-2.289 1.145 1.145 0 0 0 0 2.29z"/><path fill="#fff" d="M43.367 15.622a1.144 1.144 0 1 0 0-2.288 1.144 1.144 0 0 0 0 2.288zm4.444 0a1.145 1.145 0 1 0 0-2.289 1.145 1.145 0 0 0 0 2.29z"/><path fill="#fff" d="M50.033 15.622a1.144 1.144 0 1 0 0-2.288 1.144 1.144 0 0 0 0 2.288zm11.111 0a1.145 1.145 0 1 0 0-2.289 1.145 1.145 0 0 0 0 2.29zm6.667 0a1.144 1.144 0 1 0 0-2.288 1.144 1.144 0 0 0 0 2.288zm6.667 0a1.145 1.145 0 1 0 0-2.289 1.145 1.145 0 0 0 0 2.29z"/><path fill="#fff" d="M76.7 15.622a1.144 1.144 0 1 0 0-2.288 1.144 1.144 0 0 0 0 2.288zm-53.333 2.223a1.144 1.144 0 1 0 0-2.29 1.144 1.144 0 0 0 0 2.29zm6.666 0a1.144 1.144 0 1 0 0-2.29 1.144 1.144 0 0 0 0 2.29z"/><path fill="#fff" d="M32.255 17.845a1.145 1.145 0 1 0 0-2.29 1.145 1.145 0 0 0 0 2.29zm4.445 0a1.145 1.145 0 1 0 0-2.29 1.145 1.145 0 0 0 0 2.29z"/><path fill="#fff" d="M38.922 17.845a1.144 1.144 0 1 0 0-2.29 1.144 1.144 0 0 0 0 2.29z"/><path fill="#fff" d="M41.145 17.845a1.145 1.145 0 1 0 0-2.29 1.145 1.145 0 0 0 0 2.29z"/><path fill="#fff" d="M43.367 17.845a1.144 1.144 0 1 0 0-2.29 1.144 1.144 0 0 0 0 2.29zm11.111 0a1.144 1.144 0 1 0 0-2.29 1.144 1.144 0 0 0 0 2.29z"/><path fill="#fff" d="M56.7 17.845a1.145 1.145 0 1 0 0-2.29 1.145 1.145 0 0 0 0 2.29z"/><path fill="#fff" d="M58.922 17.845a1.144 1.144 0 1 0 0-2.29 1.144 1.144 0 0 0 0 2.29z"/><path fill="#fff" d="M61.144 17.845a1.145 1.145 0 1 0 0-2.29 1.145 1.145 0 0 0 0 2.29zm4.446 0a1.145 1.145 0 1 0 0-2.29 1.145 1.145 0 0 0 0 2.29zm6.666 0a1.144 1.144 0 1 0 0-2.29 1.144 1.144 0 0 0 0 2.29zm4.444 0a1.144 1.144 0 1 0 0-2.29 1.144 1.144 0 0 0 0 2.29zm-53.333 2.222a1.144 1.144 0 1 0 0-2.289 1.144 1.144 0 0 0 0 2.29zm4.443 0a1.145 1.145 0 1 0 0-2.289 1.145 1.145 0 0 0 0 2.29zm4.445 0a1.145 1.145 0 1 0 0-2.289 1.145 1.145 0 0 0 0 2.29zm4.445 0a1.145 1.145 0 1 0 0-2.289 1.145 1.145 0 0 0 0 2.29zm4.445 0a1.145 1.145 0 1 0 0-2.289 1.145 1.145 0 0 0 0 2.29zm4.444 0a1.145 1.145 0 1 0 0-2.289 1.145 1.145 0 0 0 0 2.29zm4.444 0a1.144 1.144 0 1 0 0-2.288 1.144 1.144 0 0 0 0 2.288zm4.445 0a1.144 1.144 0 1 0 0-2.289 1.144 1.144 0 0 0 0 2.29zm4.444 0a1.144 1.144 0 1 0 0-2.289 1.144 1.144 0 0 0 0 2.29zm4.445 0a1.144 1.144 0 1 0 0-2.288 1.144 1.144 0 0 0 0 2.288zm4.444 0a1.144 1.144 0 1 0 0-2.288 1.144 1.144 0 0 0 0 2.288z"/><path fill="#fff" d="M72.256 20.067a1.144 1.144 0 1 0 0-2.288 1.144 1.144 0 0 0 0 2.288zm4.444 0a1.144 1.144 0 1 0 0-2.288 1.144 1.144 0 0 0 0 2.288zm-53.333 2.222a1.144 1.144 0 1 0 0-2.29 1.144 1.144 0 0 0 0 2.29zm4.443 0a1.145 1.145 0 1 0 0-2.29 1.145 1.145 0 0 0 0 2.29z"/><path fill="#fff" d="M30.033 22.289a1.144 1.144 0 1 0 0-2.289 1.144 1.144 0 0 0 0 2.289zm4.444 0a1.144 1.144 0 1 0 0-2.289 1.144 1.144 0 0 0 0 2.289z"/><path fill="#fff" d="M36.7 22.289a1.145 1.145 0 1 0 0-2.29 1.145 1.145 0 0 0 0 2.29z"/><path fill="#fff" d="M38.922 22.289a1.144 1.144 0 1 0 0-2.289 1.144 1.144 0 0 0 0 2.289z"/><path fill="#fff" d="M41.145 22.289a1.145 1.145 0 1 0 0-2.29 1.145 1.145 0 0 0 0 2.29zm4.444 0a1.145 1.145 0 1 0 0-2.29 1.145 1.145 0 0 0 0 2.29zm4.444 0a1.144 1.144 0 1 0 0-2.289 1.144 1.144 0 0 0 0 2.289zm6.667 0a1.145 1.145 0 1 0 0-2.29 1.145 1.145 0 0 0 0 2.29zm4.444 0a1.145 1.145 0 1 0 0-2.29 1.145 1.145 0 0 0 0 2.29zm13.334 0a1.145 1.145 0 1 0 0-2.29 1.145 1.145 0 0 0 0 2.29z"/><path fill="#fff" d="M76.7 22.289a1.144 1.144 0 1 0 0-2.289 1.144 1.144 0 0 0 0 2.289zm-66.667 2.223a1.144 1.144 0 1 0 0-2.29 1.144 1.144 0 0 0 0 2.29z"/><path fill="#fff" d="M12.256 24.512a1.144 1.144 0 1 0 0-2.29 1.144 1.144 0 0 0 0 2.29z"/><path fill="#fff" d="M14.478 24.512a1.144 1.144 0 1 0 0-2.29 1.144 1.144 0 0 0 0 2.29zm4.444 0a1.144 1.144 0 1 0 0-2.29 1.144 1.144 0 0 0 0 2.29zm4.445 0a1.144 1.144 0 1 0 0-2.29 1.144 1.144 0 0 0 0 2.29z"/><path fill="#fff" d="M25.59 24.512a1.144 1.144 0 1 0 0-2.29 1.144 1.144 0 0 0 0 2.29zm4.443 0a1.144 1.144 0 1 0 0-2.29 1.144 1.144 0 0 0 0 2.29z"/><path fill="#fff" d="M32.255 24.512a1.145 1.145 0 1 0 0-2.29 1.145 1.145 0 0 0 0 2.29zm4.445 0a1.145 1.145 0 1 0 0-2.29 1.145 1.145 0 0 0 0 2.29zm6.667 0a1.144 1.144 0 1 0 0-2.29 1.144 1.144 0 0 0 0 2.29zm8.889 0a1.145 1.145 0 1 0 0-2.29 1.145 1.145 0 0 0 0 2.29z"/><path fill="#fff" d="M54.478 24.512a1.144 1.144 0 1 0 0-2.29 1.144 1.144 0 0 0 0 2.29z"/><path fill="#fff" d="M56.7 24.512a1.145 1.145 0 1 0 0-2.29 1.145 1.145 0 0 0 0 2.29z"/><path fill="#fff" d="M58.922 24.512a1.144 1.144 0 1 0 0-2.29 1.144 1.144 0 0 0 0 2.29zm4.445 0a1.144 1.144 0 1 0 0-2.29 1.144 1.144 0 0 0 0 2.29z"/><path fill="#fff" d="M65.59 24.512a1.145 1.145 0 1 0 0-2.29 1.145 1.145 0 0 0 0 2.29zm4.444 0a1.145 1.145 0 1 0 0-2.29 1.145 1.145 0 0 0 0 2.29zm4.444 0a1.145 1.145 0 1 0 0-2.29 1.145 1.145 0 0 0 0 2.29z"/><path fill="#fff" d="M76.7 24.512a1.144 1.144 0 1 0 0-2.29 1.144 1.144 0 0 0 0 2.29z"/><path fill="#fff" d="M78.922 24.512a1.145 1.145 0 1 0 0-2.29 1.145 1.145 0 0 0 0 2.29z"/><path fill="#fff" d="M81.144 24.512a1.145 1.145 0 1 0 0-2.29 1.145 1.145 0 0 0 0 2.29z"/><path fill="#fff" d="M83.366 24.512a1.145 1.145 0 1 0 0-2.29 1.145 1.145 0 0 0 0 2.29zm6.668 0a1.145 1.145 0 1 0 0-2.29 1.145 1.145 0 0 0 0 2.29z"/><path fill="#fff" d="M92.256 24.512a1.144 1.144 0 1 0 0-2.29 1.144 1.144 0 0 0 0 2.29z"/><path fill="#fff" d="M94.478 24.512a1.145 1.145 0 1 0 0-2.29 1.145 1.145 0 0 0 0 2.29zM7.81 26.734a1.144 1.144 0 1 0 .001-2.29 1.144 1.144 0 0 0 0 2.29z"/><path fill="#fff" d="M10.033 26.734a1.144 1.144 0 1 0 0-2.29 1.144 1.144 0 0 0 0 2.29zm4.445 0a1.144 1.144 0 1 0 0-2.29 1.144 1.144 0 0 0 0 2.29z"/><path fill="#fff" d="M16.7 26.734a1.144 1.144 0 1 0 0-2.29 1.144 1.144 0 0 0 0 2.29zm4.445 0a1.144 1.144 0 1 0 0-2.29 1.144 1.144 0 0 0 0 2.29zm4.445 0a1.144 1.144 0 1 0 0-2.289 1.144 1.144 0 0 0 0 2.289z"/><path fill="#fff" d="M27.81 26.734a1.144 1.144 0 1 0 0-2.29 1.144 1.144 0 0 0 0 2.29z"/><path fill="#fff" d="M30.033 26.734a1.144 1.144 0 1 0 0-2.289 1.144 1.144 0 0 0 0 2.289zm8.889 0a1.144 1.144 0 1 0 0-2.289 1.144 1.144 0 0 0 0 2.289zm11.111 0a1.144 1.144 0 1 0 0-2.289 1.144 1.144 0 0 0 0 2.289zm17.778 0a1.144 1.144 0 1 0 0-2.289 1.144 1.144 0 0 0 0 2.289zm6.667 0a1.144 1.144 0 1 0 0-2.29 1.144 1.144 0 0 0 0 2.29z"/><path fill="#fff" d="M76.7 26.734a1.144 1.144 0 1 0 0-2.289 1.144 1.144 0 0 0 0 2.289z"/><path fill="#fff" d="M78.922 26.734a1.144 1.144 0 1 0 0-2.29 1.144 1.144 0 0 0 0 2.29z"/><path fill="#fff" d="M81.144 26.734a1.144 1.144 0 1 0 0-2.29 1.144 1.144 0 0 0 0 2.29zm4.444 0a1.144 1.144 0 1 0 0-2.29 1.144 1.144 0 0 0 0 2.29zm4.446 0a1.144 1.144 0 1 0 0-2.29 1.144 1.144 0 0 0 0 2.29z"/><path fill="#fff" d="M92.256 26.734a1.144 1.144 0 1 0 0-2.289 1.144 1.144 0 0 0 0 2.289zM5.589 28.955a1.145 1.145 0 1 0 0-2.289 1.145 1.145 0 0 0 0 2.29z"/><path fill="#fff" d="M7.81 28.955a1.144 1.144 0 1 0 0-2.289 1.144 1.144 0 0 0 0 2.29z"/><path fill="#fff" d="M10.033 28.955a1.145 1.145 0 1 0 0-2.289 1.145 1.145 0 0 0 0 2.29z"/><path fill="#fff" d="M12.256 28.955a1.145 1.145 0 1 0 0-2.289 1.145 1.145 0 0 0 0 2.29zm6.666 0a1.145 1.145 0 1 0 0-2.289 1.145 1.145 0 0 0 0 2.29zm6.668 0a1.144 1.144 0 1 0 0-2.289 1.144 1.144 0 0 0 0 2.29zm11.11 0a1.145 1.145 0 1 0 0-2.289 1.145 1.145 0 0 0 0 2.29z"/><path fill="#fff" d="M38.922 28.955a1.144 1.144 0 1 0 0-2.289 1.144 1.144 0 0 0 0 2.29zm4.445 0a1.144 1.144 0 1 0 0-2.288 1.144 1.144 0 0 0 0 2.288zm4.444 0a1.145 1.145 0 1 0 0-2.289 1.145 1.145 0 0 0 0 2.29zm4.445 0a1.145 1.145 0 1 0 0-2.289 1.145 1.145 0 0 0 0 2.29zm6.666 0a1.144 1.144 0 1 0 0-2.289 1.144 1.144 0 0 0 0 2.29z"/><path fill="#fff" d="M61.144 28.955a1.145 1.145 0 1 0 0-2.289 1.145 1.145 0 0 0 0 2.29zm4.446 0a1.145 1.145 0 1 0 0-2.289 1.145 1.145 0 0 0 0 2.29z"/><path fill="#fff" d="M67.811 28.955a1.144 1.144 0 1 0 0-2.288 1.144 1.144 0 0 0 0 2.288zm8.889 0a1.144 1.144 0 1 0 0-2.288 1.144 1.144 0 0 0 0 2.288z"/><path fill="#fff" d="M78.922 28.955a1.145 1.145 0 1 0 0-2.289 1.145 1.145 0 0 0 0 2.29z"/><path fill="#fff" d="M81.144 28.955a1.145 1.145 0 1 0 0-2.289 1.145 1.145 0 0 0 0 2.29zm4.444 0a1.145 1.145 0 1 0 0-2.289 1.145 1.145 0 0 0 0 2.29zm6.668 0a1.144 1.144 0 1 0 0-2.289 1.144 1.144 0 0 0 0 2.29zM7.81 31.177a1.144 1.144 0 1 0 .001-2.288 1.144 1.144 0 0 0 0 2.288z"/><path fill="#fff" d="M10.033 31.177a1.144 1.144 0 1 0 0-2.288 1.144 1.144 0 0 0 0 2.288zm11.112 0a1.144 1.144 0 1 0 0-2.288 1.144 1.144 0 0 0 0 2.288z"/><path fill="#fff" d="M23.367 31.177a1.144 1.144 0 1 0 0-2.288 1.144 1.144 0 0 0 0 2.288zm4.443 0a1.144 1.144 0 1 0 0-2.288 1.144 1.144 0 0 0 0 2.288zm4.445 0a1.144 1.144 0 1 0 0-2.288 1.144 1.144 0 0 0 0 2.288z"/><path fill="#fff" d="M34.477 31.177a1.144 1.144 0 1 0 0-2.288 1.144 1.144 0 0 0 0 2.288z"/><path fill="#fff" d="M36.7 31.177a1.144 1.144 0 1 0 0-2.288 1.144 1.144 0 0 0 0 2.288zm20 0a1.144 1.144 0 1 0 0-2.288 1.144 1.144 0 0 0 0 2.288z"/><path fill="#fff" d="M58.922 31.177a1.144 1.144 0 1 0 0-2.288 1.144 1.144 0 0 0 0 2.288z"/><path fill="#fff" d="M61.144 31.177a1.144 1.144 0 1 0 0-2.288 1.144 1.144 0 0 0 0 2.288zm6.667 0a1.144 1.144 0 1 0 0-2.288 1.144 1.144 0 0 0 0 2.288zm4.445 0a1.144 1.144 0 1 0 0-2.288 1.144 1.144 0 0 0 0 2.288z"/><path fill="#fff" d="M74.478 31.177a1.144 1.144 0 1 0 0-2.288 1.144 1.144 0 0 0 0 2.288z"/><path fill="#fff" d="M76.7 31.177a1.144 1.144 0 1 0 0-2.288 1.144 1.144 0 0 0 0 2.288zm4.444 0a1.144 1.144 0 1 0 0-2.288 1.144 1.144 0 0 0 0 2.288zm6.666 0a1.144 1.144 0 1 0 .001-2.288 1.144 1.144 0 0 0 0 2.288zm6.668 0a1.144 1.144 0 1 0 0-2.288 1.144 1.144 0 0 0 0 2.288zM5.589 33.4a1.145 1.145 0 1 0 0-2.29 1.145 1.145 0 0 0 0 2.29z"/><path fill="#fff" d="M7.81 33.4a1.144 1.144 0 1 0 0-2.29 1.144 1.144 0 0 0 0 2.29z"/><path fill="#fff" d="M10.033 33.4a1.145 1.145 0 1 0 0-2.29 1.145 1.145 0 0 0 0 2.29zm6.667 0a1.145 1.145 0 1 0 0-2.29 1.145 1.145 0 0 0 0 2.29z"/><path fill="#fff" d="M18.922 33.4a1.145 1.145 0 1 0 0-2.29 1.145 1.145 0 0 0 0 2.29zm4.445 0a1.145 1.145 0 1 0 0-2.29 1.145 1.145 0 0 0 0 2.29zm11.11 0a1.144 1.144 0 1 0 0-2.29 1.144 1.144 0 0 0 0 2.29z"/><path fill="#fff" d="M36.7 33.4a1.145 1.145 0 1 0 0-2.29 1.145 1.145 0 0 0 0 2.29zm6.667 0a1.144 1.144 0 1 0 0-2.29 1.144 1.144 0 0 0 0 2.29zm4.444 0a1.145 1.145 0 1 0 0-2.29 1.145 1.145 0 0 0 0 2.29zm4.445 0a1.145 1.145 0 1 0 0-2.29 1.145 1.145 0 0 0 0 2.29zm4.444 0a1.145 1.145 0 1 0 0-2.29 1.145 1.145 0 0 0 0 2.29zm4.444 0a1.145 1.145 0 1 0 0-2.29 1.145 1.145 0 0 0 0 2.29z"/><path fill="#fff" d="M63.367 33.4a1.144 1.144 0 1 0 0-2.29 1.144 1.144 0 0 0 0 2.29zm6.667 0a1.145 1.145 0 1 0 0-2.29 1.145 1.145 0 0 0 0 2.29z"/><path fill="#fff" d="M72.256 33.4a1.144 1.144 0 1 0 0-2.29 1.144 1.144 0 0 0 0 2.29z"/><path fill="#fff" d="M74.478 33.4a1.145 1.145 0 1 0 0-2.29 1.145 1.145 0 0 0 0 2.29z"/><path fill="#fff" d="M76.7 33.4a1.144 1.144 0 1 0 0-2.29 1.144 1.144 0 0 0 0 2.29z"/><path fill="#fff" d="M78.922 33.4a1.145 1.145 0 1 0 0-2.29 1.145 1.145 0 0 0 0 2.29z"/><path fill="#fff" d="M81.144 33.4a1.145 1.145 0 1 0 0-2.29 1.145 1.145 0 0 0 0 2.29zm6.666 0a1.144 1.144 0 1 0 0-2.29 1.144 1.144 0 0 0 0 2.29z"/><path fill="#fff" d="M90.034 33.4a1.145 1.145 0 1 0 0-2.29 1.145 1.145 0 0 0 0 2.29z"/><path fill="#fff" d="M92.256 33.4a1.144 1.144 0 1 0 0-2.29 1.144 1.144 0 0 0 0 2.29zM5.589 35.622a1.144 1.144 0 1 0 0-2.289 1.144 1.144 0 0 0 0 2.289zm4.444 0a1.144 1.144 0 1 0 0-2.289 1.144 1.144 0 0 0 0 2.289zm4.445 0a1.144 1.144 0 1 0 0-2.289 1.144 1.144 0 0 0 0 2.289zm6.667 0a1.144 1.144 0 1 0 0-2.289 1.144 1.144 0 0 0 0 2.289zm8.888 0a1.144 1.144 0 1 0 0-2.289 1.144 1.144 0 0 0 0 2.289zm4.444 0a1.144 1.144 0 1 0 0-2.289 1.144 1.144 0 0 0 0 2.289z"/><path fill="#fff" d="M36.7 35.622a1.144 1.144 0 1 0 0-2.29 1.144 1.144 0 0 0 0 2.29zm6.667 0a1.144 1.144 0 1 0 0-2.289 1.144 1.144 0 0 0 0 2.289z"/><path fill="#fff" d="M45.589 35.622a1.144 1.144 0 1 0 0-2.289 1.144 1.144 0 0 0 0 2.289zm4.444 0a1.144 1.144 0 1 0 0-2.289 1.144 1.144 0 0 0 0 2.289z"/><path fill="#fff" d="M52.256 35.622a1.144 1.144 0 1 0 0-2.289 1.144 1.144 0 0 0 0 2.289zm4.444 0a1.144 1.144 0 1 0 0-2.289 1.144 1.144 0 0 0 0 2.289zm4.444 0a1.144 1.144 0 1 0 0-2.289 1.144 1.144 0 0 0 0 2.289zm4.446 0a1.144 1.144 0 1 0 0-2.289 1.144 1.144 0 0 0 0 2.289zm6.666 0a1.144 1.144 0 1 0 0-2.289 1.144 1.144 0 0 0 0 2.289z"/><path fill="#fff" d="M74.478 35.622a1.144 1.144 0 1 0 0-2.29 1.144 1.144 0 0 0 0 2.29z"/><path fill="#fff" d="M76.7 35.622a1.144 1.144 0 1 0 0-2.289 1.144 1.144 0 0 0 0 2.289z"/><path fill="#fff" d="M78.922 35.622a1.144 1.144 0 1 0 0-2.289 1.144 1.144 0 0 0 0 2.289zm6.666 0a1.144 1.144 0 1 0 0-2.289 1.144 1.144 0 0 0 0 2.289z"/><path fill="#fff" d="M87.81 35.622a1.144 1.144 0 1 0 .001-2.289 1.144 1.144 0 0 0 0 2.289z"/><path fill="#fff" d="M90.034 35.622a1.144 1.144 0 1 0 0-2.289 1.144 1.144 0 0 0 0 2.289z"/><path fill="#fff" d="M92.256 35.622a1.144 1.144 0 1 0 0-2.289 1.144 1.144 0 0 0 0 2.289z"/><path fill="#fff" d="M94.478 35.622a1.144 1.144 0 1 0 0-2.289 1.144 1.144 0 0 0 0 2.289zM7.81 37.844a1.144 1.144 0 1 0 0-2.289 1.144 1.144 0 0 0 0 2.289zm8.89 0a1.145 1.145 0 1 0 0-2.289 1.145 1.145 0 0 0 0 2.289z"/><path fill="#fff" d="M18.922 37.844a1.145 1.145 0 1 0 0-2.29 1.145 1.145 0 0 0 0 2.29zm4.445 0a1.145 1.145 0 1 0 0-2.29 1.145 1.145 0 0 0 0 2.29z"/><path fill="#fff" d="M25.59 37.844a1.144 1.144 0 1 0 0-2.289 1.144 1.144 0 0 0 0 2.289z"/><path fill="#fff" d="M27.81 37.844a1.145 1.145 0 1 0 0-2.29 1.145 1.145 0 0 0 0 2.29z"/><path fill="#fff" d="M30.033 37.844a1.144 1.144 0 1 0 0-2.289 1.144 1.144 0 0 0 0 2.289zm6.667 0a1.145 1.145 0 1 0 0-2.29 1.145 1.145 0 0 0 0 2.29z"/><path fill="#fff" d="M38.922 37.844a1.144 1.144 0 1 0 0-2.289 1.144 1.144 0 0 0 0 2.289zm26.668 0a1.145 1.145 0 1 0 0-2.29 1.145 1.145 0 0 0 0 2.29zm6.666 0a1.144 1.144 0 1 0 0-2.289 1.144 1.144 0 0 0 0 2.289zm4.444 0a1.144 1.144 0 1 0 0-2.289 1.144 1.144 0 0 0 0 2.289z"/><path fill="#fff" d="M78.922 37.844a1.145 1.145 0 1 0 0-2.29 1.145 1.145 0 0 0 0 2.29zm6.666 0a1.145 1.145 0 1 0 0-2.29 1.145 1.145 0 0 0 0 2.29z"/><path fill="#fff" d="M87.81 37.844a1.144 1.144 0 1 0 0-2.289 1.144 1.144 0 0 0 0 2.289zm-80 2.223a1.144 1.144 0 1 0 .001-2.29 1.144 1.144 0 0 0 0 2.29z"/><path fill="#fff" d="M10.033 40.067a1.144 1.144 0 1 0 0-2.29 1.144 1.144 0 0 0 0 2.29zm4.445 0a1.144 1.144 0 1 0 0-2.29 1.144 1.144 0 0 0 0 2.29z"/><path fill="#fff" d="M16.7 40.067a1.144 1.144 0 1 0 0-2.29 1.144 1.144 0 0 0 0 2.29zm4.445 0a1.144 1.144 0 1 0 0-2.29 1.144 1.144 0 0 0 0 2.29zm6.665 0a1.144 1.144 0 1 0 0-2.29 1.144 1.144 0 0 0 0 2.29z"/><path fill="#fff" d="M30.033 40.067a1.144 1.144 0 1 0 0-2.289 1.144 1.144 0 0 0 0 2.289zm31.111 0a1.144 1.144 0 1 0 0-2.29 1.144 1.144 0 0 0 0 2.29z"/><path fill="#fff" d="M63.367 40.067a1.144 1.144 0 1 0 0-2.289 1.144 1.144 0 0 0 0 2.289z"/><path fill="#fff" d="M65.59 40.067a1.144 1.144 0 1 0 0-2.29 1.144 1.144 0 0 0 0 2.29zm4.444 0a1.144 1.144 0 1 0 0-2.29 1.144 1.144 0 0 0 0 2.29z"/><path fill="#fff" d="M72.256 40.067a1.144 1.144 0 1 0 0-2.289 1.144 1.144 0 0 0 0 2.289zm8.888 0a1.144 1.144 0 1 0 0-2.29 1.144 1.144 0 0 0 0 2.29z"/><path fill="#fff" d="M83.366 40.067a1.145 1.145 0 1 0 0-2.29 1.145 1.145 0 0 0 0 2.29z"/><path fill="#fff" d="M85.588 40.067a1.144 1.144 0 1 0 0-2.29 1.144 1.144 0 0 0 0 2.29z"/><path fill="#fff" d="M87.81 40.067a1.144 1.144 0 1 0 .001-2.289 1.144 1.144 0 0 0 0 2.289zm-80 2.223a1.144 1.144 0 1 0 0-2.29 1.144 1.144 0 0 0 0 2.29zm4.446 0a1.145 1.145 0 1 0 0-2.29 1.145 1.145 0 0 0 0 2.29z"/><path fill="#fff" d="M14.478 42.29a1.145 1.145 0 1 0 0-2.29 1.145 1.145 0 0 0 0 2.29zm4.444 0a1.145 1.145 0 1 0 0-2.29 1.145 1.145 0 0 0 0 2.29zm6.668 0a1.144 1.144 0 1 0 0-2.29 1.144 1.144 0 0 0 0 2.29z"/><path fill="#fff" d="M27.81 42.29a1.145 1.145 0 1 0 0-2.29 1.145 1.145 0 0 0 0 2.29zm8.89 0a1.145 1.145 0 1 0 0-2.29 1.145 1.145 0 0 0 0 2.29zm31.111 0a1.144 1.144 0 1 0 0-2.29 1.144 1.144 0 0 0 0 2.29zm4.445 0a1.144 1.144 0 1 0 0-2.29 1.144 1.144 0 0 0 0 2.29zm6.666 0a1.145 1.145 0 1 0 0-2.29 1.145 1.145 0 0 0 0 2.29zm4.444 0a1.145 1.145 0 1 0 0-2.29 1.145 1.145 0 0 0 0 2.29zm6.668 0a1.145 1.145 0 1 0 0-2.29 1.145 1.145 0 0 0 0 2.29z"/><path fill="#fff" d="M92.256 42.29a1.144 1.144 0 1 0 0-2.29 1.144 1.144 0 0 0 0 2.29z"/><path fill="#fff" d="M94.478 42.29a1.145 1.145 0 1 0 0-2.29 1.145 1.145 0 0 0 0 2.29zM7.81 44.511a1.144 1.144 0 1 0 .001-2.289 1.144 1.144 0 0 0 0 2.289z"/><path fill="#fff" d="M10.033 44.511a1.144 1.144 0 1 0 0-2.289 1.144 1.144 0 0 0 0 2.289zm4.445 0a1.144 1.144 0 1 0 0-2.289 1.144 1.144 0 0 0 0 2.289zm8.889 0a1.144 1.144 0 1 0 0-2.289 1.144 1.144 0 0 0 0 2.289zm4.443 0a1.144 1.144 0 1 0 0-2.289 1.144 1.144 0 0 0 0 2.289z"/><path fill="#fff" d="M30.033 44.511a1.144 1.144 0 1 0 0-2.288 1.144 1.144 0 0 0 0 2.288zm37.778-.101a1.144 1.144 0 1 0 0-2.288 1.144 1.144 0 0 0 0 2.288z"/><path fill="#fff" d="M70.034 44.511a1.144 1.144 0 1 0 0-2.289 1.144 1.144 0 0 0 0 2.289z"/><path fill="#fff" d="M72.256 44.511a1.144 1.144 0 1 0 0-2.288 1.144 1.144 0 0 0 0 2.288zm8.888 0a1.144 1.144 0 1 0 0-2.289 1.144 1.144 0 0 0 0 2.289z"/><path fill="#fff" d="M83.366 44.511a1.144 1.144 0 1 0 0-2.289 1.144 1.144 0 0 0 0 2.289z"/><path fill="#fff" d="M85.588 44.511a1.144 1.144 0 1 0 0-2.289 1.144 1.144 0 0 0 0 2.289zm6.668 0a1.144 1.144 0 1 0 0-2.289 1.144 1.144 0 0 0 0 2.289z"/><path fill="#fff" d="M94.478 44.511a1.144 1.144 0 1 0 0-2.289 1.144 1.144 0 0 0 0 2.289zm-82.222 2.222a1.145 1.145 0 1 0 0-2.289 1.145 1.145 0 0 0 0 2.29z"/><path fill="#fff" d="M14.478 46.733a1.145 1.145 0 1 0 0-2.289 1.145 1.145 0 0 0 0 2.29z"/><path fill="#fff" d="M16.7 46.733a1.145 1.145 0 1 0 0-2.289 1.145 1.145 0 0 0 0 2.29z"/><path fill="#fff" d="M18.922 46.733a1.145 1.145 0 1 0 0-2.289 1.145 1.145 0 0 0 0 2.29zm15.555 0a1.144 1.144 0 1 0 0-2.288 1.144 1.144 0 0 0 0 2.288zm31.113 0a1.145 1.145 0 1 0 0-2.289 1.145 1.145 0 0 0 0 2.29z"/><path fill="#fff" d="M67.811 46.733a1.144 1.144 0 1 0 0-2.288 1.144 1.144 0 0 0 0 2.288z"/><path fill="#fff" d="M70.034 46.733a1.145 1.145 0 1 0 0-2.289 1.145 1.145 0 0 0 0 2.29z"/><path fill="#fff" d="M72.256 46.733a1.144 1.144 0 1 0 0-2.288 1.144 1.144 0 0 0 0 2.288z"/><path fill="#fff" d="M74.478 46.733a1.145 1.145 0 1 0 0-2.289 1.145 1.145 0 0 0 0 2.29zm6.666 0a1.145 1.145 0 1 0 0-2.289 1.145 1.145 0 0 0 0 2.29zm4.444 0a1.145 1.145 0 1 0 0-2.289 1.145 1.145 0 0 0 0 2.29z"/><path fill="#fff" d="M87.81 46.733a1.144 1.144 0 1 0 0-2.288 1.144 1.144 0 0 0 0 2.288z"/><path fill="#fff" d="M90.034 46.733a1.145 1.145 0 1 0 0-2.289 1.145 1.145 0 0 0 0 2.29z"/><path fill="#fff" d="M92.256 46.733a1.145 1.145 0 1 0 0-2.289 1.145 1.145 0 0 0 0 2.29zm-82.223 2.223a1.145 1.145 0 1 0 0-2.29 1.145 1.145 0 0 0 0 2.29zm6.667 0a1.145 1.145 0 1 0 0-2.29 1.145 1.145 0 0 0 0 2.29zm6.667 0a1.145 1.145 0 1 0 0-2.29 1.145 1.145 0 0 0 0 2.29z"/><path fill="#fff" d="M25.59 48.956a1.144 1.144 0 1 0 0-2.289 1.144 1.144 0 0 0 0 2.289z"/><path fill="#fff" d="M27.81 48.956a1.145 1.145 0 1 0 0-2.29 1.145 1.145 0 0 0 0 2.29zm37.78 0a1.145 1.145 0 1 0 0-2.29 1.145 1.145 0 0 0 0 2.29zm11.11 0a1.144 1.144 0 1 0 0-2.289 1.144 1.144 0 0 0 0 2.289zm8.888 0a1.145 1.145 0 1 0 0-2.29 1.145 1.145 0 0 0 0 2.29zm-75.555 2.222a1.144 1.144 0 1 0 0-2.29 1.144 1.144 0 0 0 0 2.29z"/><path fill="#fff" d="M12.256 51.178a1.144 1.144 0 1 0 0-2.29 1.144 1.144 0 0 0 0 2.29z"/><path fill="#fff" d="M14.478 51.178a1.144 1.144 0 1 0 0-2.29 1.144 1.144 0 0 0 0 2.29zm4.444 0a1.144 1.144 0 1 0 0-2.29 1.144 1.144 0 0 0 0 2.29z"/><path fill="#fff" d="M21.145 51.178a1.144 1.144 0 1 0 0-2.29 1.144 1.144 0 0 0 0 2.29z"/><path fill="#fff" d="M23.367 51.178a1.144 1.144 0 1 0 0-2.29 1.144 1.144 0 0 0 0 2.29zm6.666 0a1.144 1.144 0 1 0 0-2.289 1.144 1.144 0 0 0 0 2.288z"/><path fill="#fff" d="M32.255 51.178a1.144 1.144 0 1 0 0-2.29 1.144 1.144 0 0 0 0 2.29zm37.779 0a1.144 1.144 0 1 0 0-2.29 1.144 1.144 0 0 0 0 2.29zm13.332 0a1.144 1.144 0 1 0 0-2.29 1.144 1.144 0 0 0 0 2.29z"/><path fill="#fff" d="M85.588 51.178a1.144 1.144 0 1 0 0-2.29 1.144 1.144 0 0 0 0 2.29zm4.446 0a1.144 1.144 0 1 0 0-2.29 1.144 1.144 0 0 0 0 2.29zM7.81 53.4a1.145 1.145 0 1 0 0-2.289 1.145 1.145 0 0 0 0 2.29z"/><path fill="#fff" d="M10.033 53.4a1.145 1.145 0 1 0 0-2.289 1.145 1.145 0 0 0 0 2.29z"/><path fill="#fff" d="M12.256 53.4a1.145 1.145 0 1 0 0-2.289 1.145 1.145 0 0 0 0 2.29zm8.889 0a1.145 1.145 0 1 0 0-2.289 1.145 1.145 0 0 0 0 2.29z"/><path fill="#fff" d="M23.367 53.4a1.145 1.145 0 1 0 0-2.289 1.145 1.145 0 0 0 0 2.29zm6.666 0a1.144 1.144 0 1 0 0-2.289 1.144 1.144 0 0 0 0 2.29zm37.778 0a1.144 1.144 0 1 0 0-2.289 1.144 1.144 0 0 0 0 2.29zm6.667 0a1.145 1.145 0 1 0 0-2.29 1.145 1.145 0 0 0 0 2.29z"/><path fill="#fff" d="M76.7 53.4a1.144 1.144 0 1 0 0-2.289 1.144 1.144 0 0 0 0 2.29zm4.444 0a1.145 1.145 0 1 0 0-2.289 1.145 1.145 0 0 0 0 2.29zm8.89 0a1.145 1.145 0 1 0 0-2.289 1.145 1.145 0 0 0 0 2.29z"/><path fill="#fff" d="M92.256 53.4a1.144 1.144 0 1 0 0-2.289 1.144 1.144 0 0 0 0 2.29z"/><path fill="#fff" d="M94.478 53.4a1.145 1.145 0 1 0 0-2.289 1.145 1.145 0 0 0 0 2.29zM5.589 55.622a1.144 1.144 0 1 0 0-2.289 1.144 1.144 0 0 0 0 2.289zm4.444 0a1.144 1.144 0 1 0 0-2.289 1.144 1.144 0 0 0 0 2.289z"/><path fill="#fff" d="M12.256 55.622a1.144 1.144 0 1 0 0-2.289 1.144 1.144 0 0 0 0 2.289zm6.666 0a1.144 1.144 0 1 0 0-2.289 1.144 1.144 0 0 0 0 2.289z"/><path fill="#fff" d="M21.145 55.622a1.144 1.144 0 1 0 0-2.289 1.144 1.144 0 0 0 0 2.289z"/><path fill="#fff" d="M23.367 55.622a1.144 1.144 0 1 0 0-2.289 1.144 1.144 0 0 0 0 2.289zm8.888 0a1.144 1.144 0 1 0 0-2.289 1.144 1.144 0 0 0 0 2.289zm33.335 0a1.144 1.144 0 1 0 0-2.289 1.144 1.144 0 0 0 0 2.289z"/><path fill="#fff" d="M67.811 55.622a1.144 1.144 0 1 0 0-2.289 1.144 1.144 0 0 0 0 2.289z"/><path fill="#fff" d="M70.034 55.622a1.144 1.144 0 1 0 0-2.289 1.144 1.144 0 0 0 0 2.289z"/><path fill="#fff" d="M72.256 55.622a1.144 1.144 0 1 0 0-2.289 1.144 1.144 0 0 0 0 2.289zm8.888 0a1.144 1.144 0 1 0 0-2.289 1.144 1.144 0 0 0 0 2.289z"/><path fill="#fff" d="M83.366 55.622a1.144 1.144 0 1 0 0-2.29 1.144 1.144 0 0 0 0 2.29zm4.444 0a1.144 1.144 0 1 0 .001-2.289 1.144 1.144 0 0 0 0 2.289z"/><path fill="#fff" d="M90.034 55.622a1.144 1.144 0 1 0 0-2.289 1.144 1.144 0 0 0 0 2.289zM7.81 57.844a1.144 1.144 0 1 0 0-2.288 1.144 1.144 0 0 0 0 2.288zm4.446 0a1.145 1.145 0 1 0 0-2.289 1.145 1.145 0 0 0 0 2.29zm4.444 0a1.145 1.145 0 1 0 0-2.289 1.145 1.145 0 0 0 0 2.29zm4.445 0a1.145 1.145 0 1 0 0-2.289 1.145 1.145 0 0 0 0 2.29z"/><path fill="#fff" d="M23.367 57.844a1.145 1.145 0 1 0 0-2.289 1.145 1.145 0 0 0 0 2.29z"/><path fill="#fff" d="M25.59 57.844a1.144 1.144 0 1 0 0-2.288 1.144 1.144 0 0 0 0 2.288zm6.665 0a1.145 1.145 0 1 0 0-2.289 1.145 1.145 0 0 0 0 2.29zm33.335 0a1.145 1.145 0 1 0 0-2.289 1.145 1.145 0 0 0 0 2.29z"/><path fill="#fff" d="M67.811 57.844a1.144 1.144 0 1 0 0-2.288 1.144 1.144 0 0 0 0 2.288zm4.445 0a1.144 1.144 0 1 0 0-2.288 1.144 1.144 0 0 0 0 2.288z"/><path fill="#fff" d="M74.478 57.844a1.145 1.145 0 1 0 0-2.289 1.145 1.145 0 0 0 0 2.29zm11.11 0a1.145 1.145 0 1 0 0-2.289 1.145 1.145 0 0 0 0 2.29zm4.446 0a1.145 1.145 0 1 0 0-2.289 1.145 1.145 0 0 0 0 2.29zm4.444 0a1.145 1.145 0 1 0 0-2.289 1.145 1.145 0 0 0 0 2.29zM5.589 60.066a1.144 1.144 0 1 0 0-2.289 1.144 1.144 0 0 0 0 2.29z"/><path fill="#fff" d="M7.81 60.066a1.144 1.144 0 1 0 .001-2.289 1.144 1.144 0 0 0 0 2.29z"/><path fill="#fff" d="M10.033 60.066a1.144 1.144 0 1 0 0-2.289 1.144 1.144 0 0 0 0 2.29zm8.889 0a1.144 1.144 0 1 0 0-2.289 1.144 1.144 0 0 0 0 2.29z"/><path fill="#fff" d="M21.145 60.066a1.144 1.144 0 1 0 0-2.289 1.144 1.144 0 0 0 0 2.29zm4.445 0a1.144 1.144 0 1 0 0-2.288 1.144 1.144 0 0 0 0 2.288z"/><path fill="#fff" d="M27.81 60.066a1.144 1.144 0 1 0 0-2.289 1.144 1.144 0 0 0 0 2.29z"/><path fill="#fff" d="M30.033 60.066a1.144 1.144 0 1 0 0-2.288 1.144 1.144 0 0 0 0 2.288zm35.557 0a1.144 1.144 0 1 0 0-2.289 1.144 1.144 0 0 0 0 2.29zm4.444 0a1.144 1.144 0 1 0 0-2.289 1.144 1.144 0 0 0 0 2.29z"/><path fill="#fff" d="M72.256 60.066a1.144 1.144 0 1 0 0-2.288 1.144 1.144 0 0 0 0 2.288zm11.11 0a1.145 1.145 0 1 0 0-2.289 1.145 1.145 0 0 0 0 2.29zm11.112 0a1.144 1.144 0 1 0 0-2.289 1.144 1.144 0 0 0 0 2.29zM7.81 62.289a1.144 1.144 0 1 0 0-2.29 1.144 1.144 0 0 0 0 2.29z"/><path fill="#fff" d="M10.033 62.289a1.145 1.145 0 1 0 0-2.29 1.145 1.145 0 0 0 0 2.29zm4.445 0a1.145 1.145 0 1 0 0-2.29 1.145 1.145 0 0 0 0 2.29zm8.889 0a1.145 1.145 0 1 0 0-2.29 1.145 1.145 0 0 0 0 2.29zm4.443 0a1.145 1.145 0 1 0 0-2.29 1.145 1.145 0 0 0 0 2.29zm4.445 0a1.145 1.145 0 1 0 0-2.29 1.145 1.145 0 0 0 0 2.29zm31.112 0a1.144 1.144 0 1 0 0-2.289 1.144 1.144 0 0 0 0 2.289zm4.444 0a1.144 1.144 0 1 0 0-2.289 1.144 1.144 0 0 0 0 2.289z"/><path fill="#fff" d="M70.034 62.289a1.145 1.145 0 1 0 0-2.29 1.145 1.145 0 0 0 0 2.29z"/><path fill="#fff" d="M72.256 62.289a1.144 1.144 0 1 0 0-2.289 1.144 1.144 0 0 0 0 2.289z"/><path fill="#fff" d="M74.478 62.289a1.145 1.145 0 1 0 0-2.29 1.145 1.145 0 0 0 0 2.29zm4.444 0a1.145 1.145 0 1 0 0-2.29 1.145 1.145 0 0 0 0 2.29zm6.666 0a1.145 1.145 0 1 0 0-2.29 1.145 1.145 0 0 0 0 2.29z"/><path fill="#fff" d="M87.81 62.289a1.144 1.144 0 1 0 0-2.289 1.144 1.144 0 0 0 0 2.289zm6.668 0a1.145 1.145 0 1 0 0-2.29 1.145 1.145 0 0 0 0 2.29zm-84.445 2.222a1.144 1.144 0 1 0 0-2.289 1.144 1.144 0 0 0 0 2.289zm4.445 0a1.144 1.144 0 1 0 0-2.289 1.144 1.144 0 0 0 0 2.289z"/><path fill="#fff" d="M16.7 64.511a1.144 1.144 0 1 0 0-2.289 1.144 1.144 0 0 0 0 2.289z"/><path fill="#fff" d="M18.922 64.511a1.144 1.144 0 1 0 0-2.289 1.144 1.144 0 0 0 0 2.289zm4.445 0a1.144 1.144 0 1 0 0-2.289 1.144 1.144 0 0 0 0 2.289zm4.443 0a1.144 1.144 0 1 0 0-2.289 1.144 1.144 0 0 0 0 2.289z"/><path fill="#fff" d="M30.033 64.511a1.144 1.144 0 1 0 0-2.288 1.144 1.144 0 0 0 0 2.288zm4.444 0a1.144 1.144 0 1 0 0-2.288 1.144 1.144 0 0 0 0 2.288z"/><path fill="#fff" d="M36.7 64.511a1.144 1.144 0 1 0 0-2.289 1.144 1.144 0 0 0 0 2.289zm22.222 0a1.144 1.144 0 1 0 0-2.289 1.144 1.144 0 0 0 0 2.289z"/><path fill="#fff" d="M61.144 64.511a1.144 1.144 0 1 0 0-2.289 1.144 1.144 0 0 0 0 2.289zm4.446 0a1.144 1.144 0 1 0 0-2.289 1.144 1.144 0 0 0 0 2.289z"/><path fill="#fff" d="M67.811 64.511a1.144 1.144 0 1 0 0-2.288 1.144 1.144 0 0 0 0 2.288zm8.889 0a1.144 1.144 0 1 0 0-2.288 1.144 1.144 0 0 0 0 2.288z"/><path fill="#fff" d="M78.922 64.511a1.144 1.144 0 1 0 0-2.289 1.144 1.144 0 0 0 0 2.289zm4.444 0a1.144 1.144 0 1 0 0-2.289 1.144 1.144 0 0 0 0 2.289zm-71.11 2.222a1.145 1.145 0 1 0 0-2.289 1.145 1.145 0 0 0 0 2.29zm11.111 0a1.145 1.145 0 1 0 0-2.289 1.145 1.145 0 0 0 0 2.29z"/><path fill="#fff" d="M25.59 66.733a1.144 1.144 0 1 0 0-2.288 1.144 1.144 0 0 0 0 2.288z"/><path fill="#fff" d="M27.81 66.733a1.145 1.145 0 1 0 0-2.289 1.145 1.145 0 0 0 0 2.29z"/><path fill="#fff" d="M30.033 66.733a1.144 1.144 0 1 0 0-2.288 1.144 1.144 0 0 0 0 2.288z"/><path fill="#fff" d="M32.255 66.733a1.145 1.145 0 1 0 0-2.289 1.145 1.145 0 0 0 0 2.29zm8.89 0a1.145 1.145 0 1 0 0-2.289 1.145 1.145 0 0 0 0 2.29zm4.444 0a1.145 1.145 0 1 0 0-2.289 1.145 1.145 0 0 0 0 2.29zm4.444 0a1.144 1.144 0 1 0 0-2.288 1.144 1.144 0 0 0 0 2.288z"/><path fill="#fff" d="M52.256 66.733a1.145 1.145 0 1 0 0-2.289 1.145 1.145 0 0 0 0 2.29z"/><path fill="#fff" d="M54.478 66.733a1.144 1.144 0 1 0 0-2.288 1.144 1.144 0 0 0 0 2.288z"/><path fill="#fff" d="M56.7 66.733a1.145 1.145 0 1 0 0-2.289 1.145 1.145 0 0 0 0 2.29z"/><path fill="#fff" d="M58.922 66.733a1.144 1.144 0 1 0 0-2.289 1.144 1.144 0 0 0 0 2.29zm4.445 0a1.144 1.144 0 1 0 0-2.288 1.144 1.144 0 0 0 0 2.288zm11.111 0a1.145 1.145 0 1 0 0-2.289 1.145 1.145 0 0 0 0 2.29z"/><path fill="#fff" d="M76.7 66.733a1.144 1.144 0 1 0 0-2.288 1.144 1.144 0 0 0 0 2.288zm4.444 0a1.145 1.145 0 1 0 0-2.289 1.145 1.145 0 0 0 0 2.29z"/><path fill="#fff" d="M83.366 66.733a1.145 1.145 0 1 0 0-2.289 1.145 1.145 0 0 0 0 2.29z"/><path fill="#fff" d="M85.588 66.733a1.145 1.145 0 1 0 0-2.289 1.145 1.145 0 0 0 0 2.29z"/><path fill="#fff" d="M87.81 66.733a1.144 1.144 0 1 0 0-2.288 1.144 1.144 0 0 0 0 2.288zm-80 2.223a1.144 1.144 0 1 0 .001-2.289 1.144 1.144 0 0 0 0 2.289zm4.446 0a1.144 1.144 0 1 0 0-2.289 1.144 1.144 0 0 0 0 2.289z"/><path fill="#fff" d="M14.478 68.956a1.144 1.144 0 1 0 0-2.289 1.144 1.144 0 0 0 0 2.289z"/><path fill="#fff" d="M16.7 68.956a1.144 1.144 0 1 0 0-2.289 1.144 1.144 0 0 0 0 2.289z"/><path fill="#fff" d="M18.922 68.956a1.144 1.144 0 1 0 0-2.289 1.144 1.144 0 0 0 0 2.289z"/><path fill="#fff" d="M21.145 68.956a1.144 1.144 0 1 0 0-2.289 1.144 1.144 0 0 0 0 2.289zm4.445 0a1.144 1.144 0 1 0 0-2.289 1.144 1.144 0 0 0 0 2.289z"/><path fill="#fff" d="M27.81 68.956a1.144 1.144 0 1 0 0-2.289 1.144 1.144 0 0 0 0 2.289z"/><path fill="#fff" d="M30.033 68.956a1.144 1.144 0 1 0 0-2.289 1.144 1.144 0 0 0 0 2.289z"/><path fill="#fff" d="M32.255 68.956a1.144 1.144 0 1 0 0-2.289 1.144 1.144 0 0 0 0 2.289zm4.445 0a1.144 1.144 0 1 0 0-2.29 1.144 1.144 0 0 0 0 2.29z"/><path fill="#fff" d="M38.922 68.956a1.144 1.144 0 1 0 0-2.289 1.144 1.144 0 0 0 0 2.289zm6.667 0a1.144 1.144 0 1 0 0-2.289 1.144 1.144 0 0 0 0 2.289zm6.667 0a1.144 1.144 0 1 0 0-2.289 1.144 1.144 0 0 0 0 2.289z"/><path fill="#fff" d="M54.478 68.956a1.144 1.144 0 1 0 0-2.289 1.144 1.144 0 0 0 0 2.289zm4.444 0a1.144 1.144 0 1 0 0-2.289 1.144 1.144 0 0 0 0 2.289zm6.668 0a1.144 1.144 0 1 0 0-2.289 1.144 1.144 0 0 0 0 2.289z"/><path fill="#fff" d="M67.811 68.956a1.144 1.144 0 1 0 0-2.289 1.144 1.144 0 0 0 0 2.289z"/><path fill="#fff" d="M70.034 68.956a1.144 1.144 0 1 0 0-2.289 1.144 1.144 0 0 0 0 2.289zm4.444 0a1.144 1.144 0 1 0 0-2.29 1.144 1.144 0 0 0 0 2.29zm8.888 0a1.144 1.144 0 1 0 0-2.29 1.144 1.144 0 0 0 0 2.29zm4.444 0a1.144 1.144 0 1 0 .001-2.289 1.144 1.144 0 0 0 0 2.289z"/><path fill="#fff" d="M90.034 68.956a1.144 1.144 0 1 0 0-2.289 1.144 1.144 0 0 0 0 2.289z"/><path fill="#fff" d="M92.256 68.956a1.144 1.144 0 1 0 0-2.289 1.144 1.144 0 0 0 0 2.289zM5.589 71.178a1.145 1.145 0 1 0 0-2.289 1.145 1.145 0 0 0 0 2.29z"/><path fill="#fff" d="M7.81 71.178a1.145 1.145 0 1 0 0-2.289 1.145 1.145 0 0 0 0 2.29z"/><path fill="#fff" d="M10.033 71.178a1.145 1.145 0 1 0 0-2.289 1.145 1.145 0 0 0 0 2.29z"/><path fill="#fff" d="M12.256 71.178a1.145 1.145 0 1 0 0-2.289 1.145 1.145 0 0 0 0 2.29zm4.444 0a1.145 1.145 0 1 0 0-2.289 1.145 1.145 0 0 0 0 2.29zm4.445 0a1.145 1.145 0 1 0 0-2.289 1.145 1.145 0 0 0 0 2.29z"/><path fill="#fff" d="M23.367 71.178a1.145 1.145 0 1 0 0-2.289 1.145 1.145 0 0 0 0 2.29zm8.888 0a1.145 1.145 0 1 0 0-2.289 1.145 1.145 0 0 0 0 2.29zm4.445 0a1.145 1.145 0 1 0 0-2.29 1.145 1.145 0 0 0 0 2.29z"/><path fill="#fff" d="M38.922 71.178a1.144 1.144 0 1 0 0-2.289 1.144 1.144 0 0 0 0 2.29zm4.445 0a1.144 1.144 0 1 0 0-2.289 1.144 1.144 0 0 0 0 2.29z"/><path fill="#fff" d="M45.589 71.178a1.145 1.145 0 1 0 0-2.289 1.145 1.145 0 0 0 0 2.29z"/><path fill="#fff" d="M47.811 71.178a1.145 1.145 0 1 0 0-2.289 1.145 1.145 0 0 0 0 2.29zm11.111 0a1.144 1.144 0 1 0 0-2.289 1.144 1.144 0 0 0 0 2.29zm4.445 0a1.144 1.144 0 1 0 0-2.289 1.144 1.144 0 0 0 0 2.29zm4.444 0a1.144 1.144 0 1 0 0-2.289 1.144 1.144 0 0 0 0 2.29z"/><path fill="#fff" d="M70.034 71.178a1.145 1.145 0 1 0 0-2.289 1.145 1.145 0 0 0 0 2.29zm4.444 0a1.145 1.145 0 1 0 0-2.289 1.145 1.145 0 0 0 0 2.29zm6.666 0a1.145 1.145 0 1 0 0-2.289 1.145 1.145 0 0 0 0 2.29z"/><path fill="#fff" d="M83.366 71.178a1.145 1.145 0 1 0 0-2.289 1.145 1.145 0 0 0 0 2.29z"/><path fill="#fff" d="M85.588 71.178a1.145 1.145 0 1 0 0-2.289 1.145 1.145 0 0 0 0 2.29z"/><path fill="#fff" d="M87.81 71.178a1.144 1.144 0 1 0 0-2.289 1.144 1.144 0 0 0 0 2.29zm4.446 0a1.144 1.144 0 1 0 0-2.289 1.144 1.144 0 0 0 0 2.29z"/><path fill="#fff" d="M94.478 71.178a1.145 1.145 0 1 0 0-2.289 1.145 1.145 0 0 0 0 2.29zM5.589 73.4a1.144 1.144 0 1 0 0-2.289 1.144 1.144 0 0 0 0 2.29zm6.667 0a1.144 1.144 0 1 0 0-2.289 1.144 1.144 0 0 0 0 2.29zm6.666 0a1.144 1.144 0 1 0 0-2.289 1.144 1.144 0 0 0 0 2.29zm11.111 0a1.144 1.144 0 1 0 0-2.288 1.144 1.144 0 0 0 0 2.288z"/><path fill="#fff" d="M32.255 73.4a1.144 1.144 0 1 0 0-2.289 1.144 1.144 0 0 0 0 2.29zm4.445 0a1.145 1.145 0 1 0 0-2.289 1.145 1.145 0 0 0 0 2.29z"/><path fill="#fff" d="M38.922 73.4a1.144 1.144 0 1 0 0-2.289 1.144 1.144 0 0 0 0 2.29zm11.111 0a1.144 1.144 0 1 0 0-2.288 1.144 1.144 0 0 0 0 2.288z"/><path fill="#fff" d="M52.256 73.4a1.144 1.144 0 1 0 0-2.289 1.144 1.144 0 0 0 0 2.29zm4.444 0a1.144 1.144 0 1 0 0-2.289 1.144 1.144 0 0 0 0 2.29zm4.444 0a1.144 1.144 0 1 0 0-2.289 1.144 1.144 0 0 0 0 2.29zm4.446 0a1.144 1.144 0 1 0 0-2.289 1.144 1.144 0 0 0 0 2.29z"/><path fill="#fff" d="M67.811 73.4a1.144 1.144 0 1 0 0-2.288 1.144 1.144 0 0 0 0 2.288z"/><path fill="#fff" d="M70.034 73.4a1.144 1.144 0 1 0 0-2.289 1.144 1.144 0 0 0 0 2.29z"/><path fill="#fff" d="M72.256 73.4a1.144 1.144 0 1 0 0-2.288 1.144 1.144 0 0 0 0 2.288z"/><path fill="#fff" d="M74.478 73.4a1.145 1.145 0 1 0 0-2.289 1.145 1.145 0 0 0 0 2.29z"/><path fill="#fff" d="M76.7 73.4a1.144 1.144 0 1 0 0-2.288 1.144 1.144 0 0 0 0 2.288z"/><path fill="#fff" d="M78.922 73.4a1.145 1.145 0 1 0 0-2.289 1.145 1.145 0 0 0 0 2.29z"/><path fill="#fff" d="M81.144 73.4a1.144 1.144 0 1 0 0-2.289 1.144 1.144 0 0 0 0 2.29z"/><path fill="#fff" d="M83.366 73.4a1.145 1.145 0 1 0 0-2.289 1.145 1.145 0 0 0 0 2.29zM5.589 75.623a1.145 1.145 0 1 0 0-2.29 1.145 1.145 0 0 0 0 2.29zm4.444 0a1.145 1.145 0 1 0 0-2.29 1.145 1.145 0 0 0 0 2.29z"/><path fill="#fff" d="M12.256 75.623a1.145 1.145 0 1 0 0-2.29 1.145 1.145 0 0 0 0 2.29z"/><path fill="#fff" d="M14.478 75.623a1.145 1.145 0 1 0 0-2.29 1.145 1.145 0 0 0 0 2.29z"/><path fill="#fff" d="M16.7 75.623a1.145 1.145 0 1 0 0-2.29 1.145 1.145 0 0 0 0 2.29zm4.445 0a1.145 1.145 0 1 0 0-2.29 1.145 1.145 0 0 0 0 2.29zm8.888 0a1.144 1.144 0 1 0 0-2.29 1.144 1.144 0 0 0 0 2.29zm4.444 0a1.144 1.144 0 1 0 0-2.29 1.144 1.144 0 0 0 0 2.29zm8.89 0a1.144 1.144 0 1 0 0-2.29 1.144 1.144 0 0 0 0 2.29z"/><path fill="#fff" d="M45.589 75.623a1.145 1.145 0 1 0 0-2.29 1.145 1.145 0 0 0 0 2.29z"/><path fill="#fff" d="M47.811 75.623a1.145 1.145 0 1 0 0-2.29 1.145 1.145 0 0 0 0 2.29zm4.445 0a1.145 1.145 0 1 0 0-2.29 1.145 1.145 0 0 0 0 2.29z"/><path fill="#fff" d="M54.478 75.623a1.145 1.145 0 1 0 0-2.29 1.145 1.145 0 0 0 0 2.29zm11.112 0a1.145 1.145 0 1 0-.001-2.29 1.145 1.145 0 0 0 0 2.29zm4.444 0a1.145 1.145 0 1 0 0-2.29 1.145 1.145 0 0 0 0 2.29zm4.444 0a1.145 1.145 0 1 0 0-2.29 1.145 1.145 0 0 0 0 2.29zm4.444 0a1.145 1.145 0 1 0 0-2.29 1.145 1.145 0 0 0 0 2.29z"/><path fill="#fff" d="M81.144 75.623a1.145 1.145 0 1 0 0-2.29 1.145 1.145 0 0 0 0 2.29z"/><path fill="#fff" d="M83.366 75.623a1.145 1.145 0 1 0 0-2.29 1.145 1.145 0 0 0 0 2.29zm4.444 0a1.144 1.144 0 1 0 0-2.29 1.144 1.144 0 0 0 0 2.29zm4.446 0a1.145 1.145 0 1 0 0-2.29 1.145 1.145 0 0 0 0 2.29zM5.589 77.844a1.144 1.144 0 1 0 0-2.289 1.144 1.144 0 0 0 0 2.289zm4.444 0a1.144 1.144 0 1 0 0-2.289 1.144 1.144 0 0 0 0 2.289z"/><path fill="#fff" d="M12.256 77.844a1.144 1.144 0 1 0 0-2.289 1.144 1.144 0 0 0 0 2.289z"/><path fill="#fff" d="M14.478 77.844a1.144 1.144 0 1 0 0-2.289 1.144 1.144 0 0 0 0 2.289z"/><path fill="#fff" d="M16.7 77.844a1.144 1.144 0 1 0 0-2.289 1.144 1.144 0 0 0 0 2.289z"/><path fill="#fff" d="M18.922 77.844a1.144 1.144 0 1 0 0-2.289 1.144 1.144 0 0 0 0 2.289z"/><path fill="#fff" d="M21.145 77.844a1.144 1.144 0 1 0 0-2.289 1.144 1.144 0 0 0 0 2.289z"/><path fill="#fff" d="M23.367 77.844a1.144 1.144 0 1 0 0-2.289 1.144 1.144 0 0 0 0 2.289zm4.443 0a1.144 1.144 0 1 0 0-2.289 1.144 1.144 0 0 0 0 2.289z"/><path fill="#fff" d="M30.033 77.844a1.144 1.144 0 1 0 0-2.288 1.144 1.144 0 0 0 0 2.288z"/><path fill="#fff" d="M32.255 77.844a1.144 1.144 0 1 0 0-2.289 1.144 1.144 0 0 0 0 2.289z"/><path fill="#fff" d="M34.477 77.844a1.144 1.144 0 1 0 0-2.288 1.144 1.144 0 0 0 0 2.288zm4.445 0a1.144 1.144 0 1 0 0-2.289 1.144 1.144 0 0 0 0 2.289z"/><path fill="#fff" d="M41.145 77.844a1.144 1.144 0 1 0 0-2.289 1.144 1.144 0 0 0 0 2.289z"/><path fill="#fff" d="M43.367 77.844a1.144 1.144 0 1 0 0-2.288 1.144 1.144 0 0 0 0 2.288zm4.444 0a1.144 1.144 0 1 0 0-2.289 1.144 1.144 0 0 0 0 2.289zm8.889 0a1.144 1.144 0 1 0 0-2.289 1.144 1.144 0 0 0 0 2.289z"/><path fill="#fff" d="M58.922 77.844a1.144 1.144 0 1 0 0-2.289 1.144 1.144 0 0 0 0 2.289zm4.445 0a1.144 1.144 0 1 0 0-2.288 1.144 1.144 0 0 0 0 2.288zm4.444 0a1.144 1.144 0 1 0 0-2.288 1.144 1.144 0 0 0 0 2.288z"/><path fill="#fff" d="M70.034 77.844a1.144 1.144 0 1 0 0-2.289 1.144 1.144 0 0 0 0 2.289z"/><path fill="#fff" d="M72.256 77.844a1.144 1.144 0 1 0 0-2.288 1.144 1.144 0 0 0 0 2.288z"/><path fill="#fff" d="M74.478 77.844a1.144 1.144 0 1 0 0-2.289 1.144 1.144 0 0 0 0 2.289z"/><path fill="#fff" d="M76.7 77.844a1.144 1.144 0 1 0 0-2.288 1.144 1.144 0 0 0 0 2.288z"/><path fill="#fff" d="M78.922 77.844a1.144 1.144 0 1 0 0-2.289 1.144 1.144 0 0 0 0 2.289z"/><path fill="#fff" d="M81.144 77.844a1.144 1.144 0 1 0 0-2.289 1.144 1.144 0 0 0 0 2.289z"/><path fill="#fff" d="M83.366 77.844a1.144 1.144 0 1 0 0-2.289 1.144 1.144 0 0 0 0 2.289z"/><path fill="#fff" d="M85.588 77.844a1.144 1.144 0 1 0 0-2.289 1.144 1.144 0 0 0 0 2.289zm4.446 0a1.144 1.144 0 1 0 0-2.289 1.144 1.144 0 0 0 0 2.289zm4.444 0a1.144 1.144 0 1 0 0-2.289 1.144 1.144 0 0 0 0 2.289zm-71.111 2.222a1.145 1.145 0 1 0 0-2.289 1.145 1.145 0 0 0 0 2.29z"/><path fill="#fff" d="M25.59 80.066a1.144 1.144 0 1 0-.001-2.289 1.144 1.144 0 0 0 0 2.29z"/><path fill="#fff" d="M27.81 80.066a1.145 1.145 0 1 0 0-2.289 1.145 1.145 0 0 0 0 2.29z"/><path fill="#fff" d="M30.033 80.066a1.144 1.144 0 1 0 0-2.288 1.144 1.144 0 0 0 0 2.288zm4.444 0a1.144 1.144 0 1 0 0-2.288 1.144 1.144 0 0 0 0 2.288zm6.668 0a1.145 1.145 0 1 0 0-2.289 1.145 1.145 0 0 0 0 2.29z"/><path fill="#fff" d="M43.367 80.066a1.144 1.144 0 1 0 0-2.288 1.144 1.144 0 0 0 0 2.288zm4.444 0a1.145 1.145 0 1 0 0-2.289 1.145 1.145 0 0 0 0 2.29z"/><path fill="#fff" d="M50.033 80.066a1.144 1.144 0 1 0 0-2.288 1.144 1.144 0 0 0 0 2.288zm4.445 0a1.144 1.144 0 1 0 0-2.289 1.144 1.144 0 0 0 0 2.29z"/><path fill="#fff" d="M56.7 80.066a1.145 1.145 0 1 0 0-2.289 1.145 1.145 0 0 0 0 2.29z"/><path fill="#fff" d="M58.922 80.066a1.145 1.145 0 1 0 0-2.289 1.145 1.145 0 0 0 0 2.29z"/><path fill="#fff" d="M61.144 80.066a1.145 1.145 0 1 0 0-2.289 1.145 1.145 0 0 0 0 2.29z"/><path fill="#fff" d="M63.367 80.066a1.144 1.144 0 1 0 0-2.288 1.144 1.144 0 0 0 0 2.288z"/><path fill="#fff" d="M65.59 80.066a1.145 1.145 0 1 0 0-2.289 1.145 1.145 0 0 0 0 2.29zm4.444 0a1.145 1.145 0 1 0 0-2.289 1.145 1.145 0 0 0 0 2.29z"/><path fill="#fff" d="M72.256 80.066a1.144 1.144 0 1 0 0-2.288 1.144 1.144 0 0 0 0 2.288zm4.444 0a1.144 1.144 0 1 0 0-2.288 1.144 1.144 0 0 0 0 2.288zm8.888 0a1.145 1.145 0 1 0 0-2.289 1.145 1.145 0 0 0 0 2.29zm6.668 0a1.145 1.145 0 1 0 0-2.289 1.145 1.145 0 0 0 0 2.29z"/><path fill="#fff" d="M94.478 80.066a1.145 1.145 0 1 0 0-2.289 1.145 1.145 0 0 0 0 2.29zm-64.445 2.222a1.144 1.144 0 1 0 0-2.288 1.144 1.144 0 0 0 0 2.288zm4.444 0a1.144 1.144 0 1 0 0-2.288 1.144 1.144 0 0 0 0 2.288z"/><path fill="#fff" d="M36.7 82.288a1.145 1.145 0 1 0 0-2.289 1.145 1.145 0 0 0 0 2.29z"/><path fill="#fff" d="M38.922 82.288a1.144 1.144 0 1 0 0-2.289 1.144 1.144 0 0 0 0 2.29zm4.445 0a1.144 1.144 0 1 0 0-2.288 1.144 1.144 0 0 0 0 2.288zm8.889 0a1.145 1.145 0 1 0 0-2.289 1.145 1.145 0 0 0 0 2.29zm4.444 0a1.145 1.145 0 1 0 0-2.289 1.145 1.145 0 0 0 0 2.29zm6.667 0a1.144 1.144 0 1 0 0-2.288 1.144 1.144 0 0 0 0 2.288zm4.444 0a1.144 1.144 0 1 0 0-2.288 1.144 1.144 0 0 0 0 2.288z"/><path fill="#fff" d="M70.034 82.288a1.145 1.145 0 1 0 0-2.289 1.145 1.145 0 0 0 0 2.29z"/><path fill="#fff" d="M72.256 82.288a1.144 1.144 0 1 0 0-2.288 1.144 1.144 0 0 0 0 2.288z"/><path fill="#fff" d="M74.478 82.288a1.145 1.145 0 1 0 0-2.289 1.145 1.145 0 0 0 0 2.29z"/><path fill="#fff" d="M76.7 82.288a1.144 1.144 0 1 0 0-2.288 1.144 1.144 0 0 0 0 2.288zm4.444 0a1.145 1.145 0 1 0 0-2.289 1.145 1.145 0 0 0 0 2.29zm4.444 0a1.145 1.145 0 1 0 0-2.289 1.145 1.145 0 0 0 0 2.29zM27.81 84.51a1.145 1.145 0 1 0 0-2.288 1.145 1.145 0 0 0 0 2.289zm4.445 0a1.145 1.145 0 1 0 0-2.288 1.145 1.145 0 0 0 0 2.289z"/><path fill="#fff" d="M34.477 84.51a1.144 1.144 0 1 0 0-2.288 1.144 1.144 0 0 0 0 2.289z"/><path fill="#fff" d="M36.7 84.51a1.145 1.145 0 1 0 0-2.289 1.145 1.145 0 0 0 0 2.29zm22.222 0a1.145 1.145 0 1 0 0-2.288 1.145 1.145 0 0 0 0 2.289zm17.778 0a1.144 1.144 0 1 0 0-2.288 1.144 1.144 0 0 0 0 2.289zm8.888 0a1.145 1.145 0 1 0 0-2.288 1.145 1.145 0 0 0 0 2.289z"/><path fill="#fff" d="M87.81 84.51a1.144 1.144 0 1 0 0-2.288 1.144 1.144 0 0 0 0 2.289zm4.446 0a1.145 1.145 0 1 0 0-2.288 1.145 1.145 0 0 0 0 2.289zm-68.889 2.223a1.145 1.145 0 1 0 0-2.289 1.145 1.145 0 0 0 0 2.29zm4.443 0a1.145 1.145 0 1 0 0-2.289 1.145 1.145 0 0 0 0 2.29zm6.667 0a1.144 1.144 0 1 0 0-2.289 1.144 1.144 0 0 0 0 2.29z"/><path fill="#fff" d="M36.7 86.733a1.145 1.145 0 1 0 0-2.29 1.145 1.145 0 0 0 0 2.29z"/><path fill="#fff" d="M38.922 86.733a1.144 1.144 0 1 0 0-2.289 1.144 1.144 0 0 0 0 2.29z"/><path fill="#fff" d="M41.145 87.036a1.145 1.145 0 1 0 0-2.289 1.145 1.145 0 0 0 0 2.29zm13.333-.303a1.144 1.144 0 1 0 0-2.289 1.144 1.144 0 0 0 0 2.29zm11.112 0a1.145 1.145 0 1 0 0-2.289 1.145 1.145 0 0 0 0 2.29z"/><path fill="#fff" d="M67.811 86.733a1.144 1.144 0 1 0 0-2.289 1.144 1.144 0 0 0 0 2.29z"/><path fill="#fff" d="M70.034 86.733a1.145 1.145 0 1 0 0-2.289 1.145 1.145 0 0 0 0 2.29zm4.444 0a1.145 1.145 0 1 0 0-2.29 1.145 1.145 0 0 0 0 2.29z"/><path fill="#fff" d="M76.7 86.733a1.144 1.144 0 1 0 0-2.289 1.144 1.144 0 0 0 0 2.29z"/><path fill="#fff" d="M78.922 86.733a1.145 1.145 0 1 0 0-2.29 1.145 1.145 0 0 0 0 2.29z"/><path fill="#fff" d="M81.144 86.733a1.145 1.145 0 1 0 0-2.289 1.145 1.145 0 0 0 0 2.29z"/><path fill="#fff" d="M83.366 86.733a1.145 1.145 0 1 0 0-2.29 1.145 1.145 0 0 0 0 2.29z"/><path fill="#fff" d="M85.588 86.733a1.145 1.145 0 1 0 0-2.289 1.145 1.145 0 0 0 0 2.29zm-62.221 2.222a1.144 1.144 0 1 0 0-2.289 1.144 1.144 0 0 0 0 2.289zm11.11 0a1.144 1.144 0 1 0 0-2.289 1.144 1.144 0 0 0 0 2.289z"/><path fill="#fff" d="M36.7 88.955a1.145 1.145 0 1 0 0-2.29 1.145 1.145 0 0 0 0 2.29zm6.667 0a1.144 1.144 0 1 0 0-2.289 1.144 1.144 0 0 0 0 2.289zm4.444 0a1.144 1.144 0 1 0 0-2.289 1.144 1.144 0 0 0 0 2.289zm4.445 0a1.144 1.144 0 1 0 0-2.29 1.144 1.144 0 0 0 0 2.29z"/><path fill="#fff" d="M54.478 88.955a1.144 1.144 0 1 0 0-2.289 1.144 1.144 0 0 0 0 2.289z"/><path fill="#fff" d="M56.7 88.955a1.144 1.144 0 1 0 0-2.289 1.144 1.144 0 0 0 0 2.289z"/><path fill="#fff" d="M58.922 88.955a1.144 1.144 0 1 0 0-2.289 1.144 1.144 0 0 0 0 2.289zm4.445 0a1.144 1.144 0 1 0 0-2.289 1.144 1.144 0 0 0 0 2.289zm4.444 0a1.144 1.144 0 1 0 0-2.289 1.144 1.144 0 0 0 0 2.289z"/><path fill="#fff" d="M70.034 88.955a1.144 1.144 0 1 0 0-2.29 1.144 1.144 0 0 0 0 2.29z"/><path fill="#fff" d="M72.256 88.955a1.144 1.144 0 1 0 0-2.289 1.144 1.144 0 0 0 0 2.289zm6.666 0a1.145 1.145 0 1 0 0-2.29 1.145 1.145 0 0 0 0 2.29zm4.444 0a1.145 1.145 0 1 0 0-2.29 1.145 1.145 0 0 0 0 2.29zm-59.999 2.223a1.145 1.145 0 1 0 0-2.29 1.145 1.145 0 0 0 0 2.29z"/><path fill="#fff" d="M25.59 91.178a1.144 1.144 0 1 0 0-2.289 1.144 1.144 0 0 0 0 2.289zm15.555 0a1.145 1.145 0 1 0 0-2.29 1.145 1.145 0 0 0 0 2.29z"/><path fill="#fff" d="M43.367 91.178a1.144 1.144 0 1 0 0-2.289 1.144 1.144 0 0 0 0 2.289zm4.444 0a1.145 1.145 0 1 0 0-2.29 1.145 1.145 0 0 0 0 2.29z"/><path fill="#fff" d="M50.033 91.178a1.144 1.144 0 1 0 0-2.289 1.144 1.144 0 0 0 0 2.289z"/><path fill="#fff" d="M52.256 91.178a1.145 1.145 0 1 0 0-2.29 1.145 1.145 0 0 0 0 2.29zm6.666 0a1.144 1.144 0 1 0 0-2.289 1.144 1.144 0 0 0 0 2.289z"/><path fill="#fff" d="M61.144 91.178a1.145 1.145 0 1 0 0-2.29 1.145 1.145 0 0 0 0 2.29zm4.446 0a1.145 1.145 0 1 0 0-2.29 1.145 1.145 0 0 0 0 2.29zm13.332 0a1.145 1.145 0 1 0 0-2.29 1.145 1.145 0 0 0 0 2.29z"/><path fill="#fff" d="M81.144 91.178a1.145 1.145 0 1 0 0-2.29 1.145 1.145 0 0 0 0 2.29z"/><path fill="#fff" d="M83.366 91.178a1.145 1.145 0 1 0 0-2.29 1.145 1.145 0 0 0 0 2.29z"/><path fill="#fff" d="M85.588 91.178a1.145 1.145 0 1 0 0-2.29 1.145 1.145 0 0 0 0 2.29z"/><path fill="#fff" d="M87.81 91.178a1.144 1.144 0 1 0 0-2.289 1.144 1.144 0 0 0 0 2.289z"/><path fill="#fff" d="M90.034 91.178a1.145 1.145 0 1 0 0-2.29 1.145 1.145 0 0 0 0 2.29z"/><path fill="#fff" d="M92.256 91.178a1.144 1.144 0 1 0 0-2.289 1.144 1.144 0 0 0 0 2.289zM27.81 93.4a1.144 1.144 0 1 0 0-2.289 1.144 1.144 0 0 0 0 2.29z"/><path fill="#fff" d="M30.033 93.4a1.144 1.144 0 1 0 0-2.288 1.144 1.144 0 0 0 0 2.288zm6.667 0a1.145 1.145 0 1 0 0-2.289 1.145 1.145 0 0 0 0 2.29zm11.111 0a1.144 1.144 0 1 0 0-2.289 1.144 1.144 0 0 0 0 2.29z"/><path fill="#fff" d="M50.033 93.4a1.144 1.144 0 1 0 0-2.288 1.144 1.144 0 0 0 0 2.288zm8.889 0a1.144 1.144 0 1 0 0-2.289 1.144 1.144 0 0 0 0 2.29z"/><path fill="#fff" d="M61.144 93.4a1.144 1.144 0 1 0 0-2.289 1.144 1.144 0 0 0 0 2.29zm4.446 0a1.144 1.144 0 1 0 0-2.289 1.144 1.144 0 0 0 0 2.29zm8.888 0a1.145 1.145 0 1 0 0-2.289 1.145 1.145 0 0 0 0 2.29z"/><path fill="#fff" d="M76.7 93.4a1.144 1.144 0 1 0 0-2.288 1.144 1.144 0 0 0 0 2.288z"/><path fill="#fff" d="M78.922 93.4a1.145 1.145 0 1 0 0-2.289 1.145 1.145 0 0 0 0 2.29zm6.666 0a1.144 1.144 0 1 0 0-2.289 1.144 1.144 0 0 0 0 2.29zm4.446 0a1.144 1.144 0 1 0 0-2.289 1.144 1.144 0 0 0 0 2.29z"/><path fill="#fff" d="M92.256 93.4a1.144 1.144 0 1 0 0-2.289 1.144 1.144 0 0 0 0 2.29zM25.59 95.622a1.144 1.144 0 1 0 0-2.289 1.144 1.144 0 0 0 0 2.29z"/><path fill="#fff" d="M27.81 95.622a1.145 1.145 0 1 0 0-2.289 1.145 1.145 0 0 0 0 2.29zm4.445 0a1.145 1.145 0 1 0 0-2.289 1.145 1.145 0 0 0 0 2.29z"/><path fill="#fff" d="M34.477 95.622a1.144 1.144 0 1 0 0-2.288 1.144 1.144 0 0 0 0 2.288zm4.445 0a1.144 1.144 0 1 0 0-2.289 1.144 1.144 0 0 0 0 2.29z"/><path fill="#fff" d="M41.145 95.622a1.145 1.145 0 1 0 0-2.289 1.145 1.145 0 0 0 0 2.29zm8.888 0a1.144 1.144 0 1 0 0-2.288 1.144 1.144 0 0 0 0 2.288zm4.445 0a1.144 1.144 0 1 0 0-2.289 1.144 1.144 0 0 0 0 2.29z"/><path fill="#fff" d="M56.7 95.622a1.145 1.145 0 1 0 0-2.289 1.145 1.145 0 0 0 0 2.29z"/><path fill="#fff" d="M58.922 95.622a1.144 1.144 0 1 0 0-2.289 1.144 1.144 0 0 0 0 2.29z"/><path fill="#fff" d="M61.144 95.622a1.145 1.145 0 1 0 0-2.289 1.145 1.145 0 0 0 0 2.29z"/><path fill="#fff" d="M63.467 95.622a1.144 1.144 0 1 0 0-2.288 1.144 1.144 0 0 0 0 2.288z"/><path fill="#fff" d="M65.59 95.724a1.145 1.145 0 1 0 0-2.29 1.145 1.145 0 0 0 0 2.29zm4.444-.102a1.145 1.145 0 1 0 0-2.289 1.145 1.145 0 0 0 0 2.29zm4.444 0a1.145 1.145 0 1 0 0-2.289 1.145 1.145 0 0 0 0 2.29zm4.444 0a1.145 1.145 0 1 0 0-2.289 1.145 1.145 0 0 0 0 2.29zm4.444 0a1.145 1.145 0 1 0 0-2.289 1.145 1.145 0 0 0 0 2.29z"/><path fill="#fff" d="M85.588 95.622a1.145 1.145 0 1 0 0-2.289 1.145 1.145 0 0 0 0 2.29z"/></mask><g mask="url(#b)"><path fill="#000" d="M100.909 0h-100v100h100V0z"/></g><path fill="#000" d="M4.444 12.222A7.73 7.73 0 0 0 12.222 20 7.73 7.73 0 0 0 20 12.222a7.73 7.73 0 0 0-7.778-7.778 7.73 7.73 0 0 0-7.778 7.778zm7.778 5.556c-3.111 0-5.555-2.445-5.555-5.556s2.444-5.555 5.555-5.555c3.111 0 5.556 2.444 5.556 5.555 0 3.111-2.445 5.556-5.556 5.556z"/><path fill="#000" d="M12.223 15.556a3.333 3.333 0 1 0 0-6.667 3.333 3.333 0 0 0 0 6.667zM80 12.222A7.73 7.73 0 0 0 87.777 20a7.73 7.73 0 0 0 7.778-7.778 7.73 7.73 0 0 0-7.778-7.778A7.73 7.73 0 0 0 80 12.222zm7.777 5.556c-3.11 0-5.555-2.445-5.555-5.556s2.444-5.555 5.555-5.555c3.112 0 5.556 2.444 5.556 5.555 0 3.111-2.444 5.556-5.556 5.556z"/><path fill="#000" d="M87.777 15.556a3.333 3.333 0 1 0 0-6.667 3.333 3.333 0 0 0 0 6.667zM4.444 87.777a7.73 7.73 0 0 0 7.778 7.778A7.73 7.73 0 0 0 20 87.777 7.73 7.73 0 0 0 12.222 80a7.73 7.73 0 0 0-7.778 7.778zm7.778 5.556c-3.111 0-5.555-2.445-5.555-5.556s2.444-5.555 5.555-5.555c3.111 0 5.556 2.444 5.556 5.555 0 3.111-2.445 5.556-5.556 5.556z"/><path fill="#000" d="M12.223 91.11a3.333 3.333 0 1 0 0-6.666 3.333 3.333 0 0 0 0 6.667z"/><path fill="#FDA9FF" d="M62.234 50.133c0-6.977-5.656-12.633-12.633-12.633-6.977 0-12.633 5.656-12.633 12.633 0 6.977 5.656 12.633 12.633 12.633 6.977 0 12.633-5.656 12.633-12.633z"/><path fill="#1B1B1C" d="M40.666 47.24a.145.145 0 0 1 .134-.126l2.613-.171a.145.145 0 0 1 .153.163l-.116.874a.145.145 0 0 1-.134.125l-1.335.088a.145.145 0 0 0-.134.125l-.203 1.532c-.012.09.062.17.153.163l1.065-.07a.145.145 0 0 1 .153.164l-.105.79a.145.145 0 0 1-.134.126l-1.18.078a.145.145 0 0 0-.134.125l-.39 2.947a.145.145 0 0 1-.135.126l-1.04.068a.145.145 0 0 1-.154-.163l.923-6.965zm5.432 5.558a.145.145 0 0 1 .153.163l-.117.88a.145.145 0 0 1-.134.125l-2.772.182a.145.145 0 0 1-.154-.164l.923-6.964a.145.145 0 0 1 .134-.125l2.7-.177a.145.145 0 0 1 .153.163l-.116.874a.145.145 0 0 1-.134.125l-1.422.093a.145.145 0 0 0-.134.126l-.203 1.532c-.012.09.062.17.153.163l1.157-.076a.145.145 0 0 1 .153.164l-.105.791a.145.145 0 0 1-.134.126l-1.272.083a.145.145 0 0 0-.134.126l-.228 1.717c-.012.09.062.17.153.164l1.38-.09zm2.231-4.851a.144.144 0 0 0-.153-.163l-.794.052a.145.145 0 0 1-.153-.163l.115-.874a.145.145 0 0 1 .134-.125l3.334-.22a.145.145 0 0 1 .153.164l-.115.874a.145.145 0 0 1-.135.125l-.909.06a.145.145 0 0 0-.134.126l-.776 5.855a.145.145 0 0 1-.134.125l-1.04.068a.145.145 0 0 1-.154-.163l.76-5.74zm2.291 3.429.349-2.639c.215-1.627.936-2.47 2.238-2.556 1.238-.081 1.825.558 1.598 2.274l-.036.273a.145.145 0 0 1-.112.122l-1.014.23a.145.145 0 0 1-.175-.16l.028-.22c.151-1.14-.01-1.443-.407-1.417-.396.026-.64.381-.734 1.091l-.42 3.172c-.094.705.059 1.04.455 1.014.378-.025.65-.377.81-1.59l.045-.335a.145.145 0 0 1 .166-.124l.982.154a.145.145 0 0 1 .121.162l-.038.29c-.232 1.752-1.048 2.484-2.263 2.564-1.311.086-1.81-.678-1.594-2.305zm8.686-5.476a.145.145 0 0 1 .153.163l-.923 6.964a.145.145 0 0 1-.134.125l-1.045.069a.145.145 0 0 1-.153-.164l.375-2.831a.145.145 0 0 0-.153-.164l-.799.053a.145.145 0 0 0-.134.125l-.39 2.947a.145.145 0 0 1-.134.125l-1.04.068a.145.145 0 0 1-.154-.163l.923-6.964a.145.145 0 0 1 .134-.126l1.04-.068a.145.145 0 0 1 .154.163l-.345 2.641c-.012.09.062.17.153.163l.793-.052a.145.145 0 0 0 .134-.125l.365-2.756a.145.145 0 0 1 .134-.125l1.046-.069z"/></g></svg>